<svg width="66" height="24" viewBox="0 0 66 24" fill="none" xmlns="http://www.w3.org/2000/svg">
<g clip-path="url(#clip0_136_4793)">
<path d="M65.0821 0.969175C65.2106 0.969175 65.3242 0.956141 65.3242 0.791021C65.3242 0.653059 65.1997 0.636763 65.0971 0.636763H64.89V0.969175H65.0821ZM64.89 1.61445H64.7197V0.478161H65.115C65.367 0.478161 65.4944 0.573759 65.4944 0.805143C65.4944 1.01046 65.3789 1.09628 65.2225 1.11474L65.5153 1.61445H65.3211L65.0513 1.12887H64.89V1.61445ZM65.0772 0.178341C64.6689 0.178341 64.3522 0.527046 64.3522 1.02675C64.3522 1.49387 64.6281 1.87625 65.0772 1.87625C65.4795 1.87625 65.7971 1.52971 65.7971 1.02675C65.7971 0.527046 65.4795 0.178341 65.0772 0.178341ZM65.0772 2.0544C64.5354 2.0544 64.1501 1.61227 64.1501 1.02675C64.1501 0.409723 64.5783 0.000183105 65.0772 0.000183105C65.5701 0.000183105 65.9983 0.409723 65.9983 1.02675C65.9983 1.64486 65.5701 2.0544 65.0772 2.0544ZM64.6231 10.4809L65.9983 9.0003V4.49969L61.8737 0.000183105H48.1236L43.998 4.49969V1.50039L42.6238 0.000183105H37.123L35.7488 1.50039V4.49969L32.9984 7.5001L30.248 4.49969V1.50039L28.8738 0.000183105H23.3729L21.9988 1.50039L20.6235 0.000183105H15.1237L13.7485 1.50039V7.5001L6.87349 0.000183105H1.37366L-0.00152588 1.50039V22.4999L1.37366 24.0001H6.87349L8.24868 22.4999V16.5002L15.1237 24.0001H20.6235L21.9988 22.4999V10.4994L28.8738 17.9993V22.4999L30.248 24.0001H35.7488L37.123 22.4999V17.9993L43.998 10.4994V19.4995L48.1236 24.0001H61.8737L65.9983 19.4995V15L64.6231 13.4976H57.7481V15H52.2482V9.0003H57.7481V10.4809H64.6231Z" fill="black"/>
</g>
<defs>
<clipPath id="clip0_136_4793">
<rect width="66" height="24" fill="white"/>
</clipPath>
</defs>
</svg>
